<mxfile host="app.diagrams.net" modified="2021-01-09T10:03:17.578Z" agent="5.0 (Macintosh; Intel Mac OS X 10_15_6) AppleWebKit/537.36 (KHTML, like Gecko) Chrome/86.0.4240.193 Safari/537.36" etag="XSdA0gOTZAQ1mzlHe3zP" version="14.1.8" type="github">
  <diagram id="tCljcDxRBoMlGk4P-c9q" name="Page-1">
    <mxGraphModel dx="1426" dy="771" grid="1" gridSize="10" guides="1" tooltips="1" connect="1" arrows="1" fold="1" page="1" pageScale="1" pageWidth="827" pageHeight="1169" math="0" shadow="0">
      <root>
        <mxCell id="0" />
        <mxCell id="1" parent="0" />
        <mxCell id="XU56r5Qt3jW2Y6eBHJ7n-3" value="" style="shape=ext;rounded=1;html=1;whiteSpace=wrap;dashed=1;dashPattern=1 4;" vertex="1" parent="1">
          <mxGeometry x="90" y="120" width="340" height="270" as="geometry" />
        </mxCell>
        <mxCell id="XU56r5Qt3jW2Y6eBHJ7n-5" style="rounded=0;orthogonalLoop=1;jettySize=auto;html=1;exitX=0.5;exitY=0;exitDx=0;exitDy=0;entryX=0;entryY=0.5;entryDx=0;entryDy=0;" edge="1" parent="1" source="XU56r5Qt3jW2Y6eBHJ7n-1" target="XU56r5Qt3jW2Y6eBHJ7n-2">
          <mxGeometry relative="1" as="geometry" />
        </mxCell>
        <mxCell id="XU56r5Qt3jW2Y6eBHJ7n-8" style="rounded=0;orthogonalLoop=1;jettySize=auto;html=1;exitX=1;exitY=0.5;exitDx=0;exitDy=0;entryX=0;entryY=0.5;entryDx=0;entryDy=0;" edge="1" parent="1" source="XU56r5Qt3jW2Y6eBHJ7n-1" target="XU56r5Qt3jW2Y6eBHJ7n-6">
          <mxGeometry relative="1" as="geometry" />
        </mxCell>
        <mxCell id="XU56r5Qt3jW2Y6eBHJ7n-9" style="edgeStyle=none;rounded=0;orthogonalLoop=1;jettySize=auto;html=1;exitX=1;exitY=0.5;exitDx=0;exitDy=0;entryX=0;entryY=0.5;entryDx=0;entryDy=0;" edge="1" parent="1" source="XU56r5Qt3jW2Y6eBHJ7n-1" target="XU56r5Qt3jW2Y6eBHJ7n-7">
          <mxGeometry relative="1" as="geometry" />
        </mxCell>
        <mxCell id="XU56r5Qt3jW2Y6eBHJ7n-1" value="命令传播程序" style="rounded=1;whiteSpace=wrap;html=1;" vertex="1" parent="1">
          <mxGeometry x="130" y="260" width="120" height="60" as="geometry" />
        </mxCell>
        <mxCell id="XU56r5Qt3jW2Y6eBHJ7n-2" value="复制积压缓冲区" style="rounded=1;whiteSpace=wrap;html=1;fillColor=#dae8fc;strokeColor=#6c8ebf;" vertex="1" parent="1">
          <mxGeometry x="290" y="190" width="100" height="40" as="geometry" />
        </mxCell>
        <mxCell id="XU56r5Qt3jW2Y6eBHJ7n-4" value="master" style="text;html=1;strokeColor=none;fillColor=none;align=center;verticalAlign=middle;whiteSpace=wrap;rounded=0;" vertex="1" parent="1">
          <mxGeometry x="240" y="150" width="40" height="20" as="geometry" />
        </mxCell>
        <mxCell id="XU56r5Qt3jW2Y6eBHJ7n-6" value="slave1" style="rounded=1;whiteSpace=wrap;html=1;fillColor=#ffe6cc;strokeColor=#d79b00;" vertex="1" parent="1">
          <mxGeometry x="500" y="245" width="100" height="40" as="geometry" />
        </mxCell>
        <mxCell id="XU56r5Qt3jW2Y6eBHJ7n-7" value="slave2" style="rounded=1;whiteSpace=wrap;html=1;fillColor=#ffe6cc;strokeColor=#d79b00;" vertex="1" parent="1">
          <mxGeometry x="500" y="340" width="100" height="40" as="geometry" />
        </mxCell>
      </root>
    </mxGraphModel>
  </diagram>
</mxfile>
